<svg width="25" height="22" viewBox="0 0 25 22" fill="none" xmlns="http://www.w3.org/2000/svg">
<path d="M12.625 18.643L12.5 18.7629L12.3625 18.643C6.425 13.4757 2.5 10.0589 2.5 6.594C2.5 4.19618 4.375 2.39782 6.875 2.39782C8.8 2.39782 10.675 3.59673 11.3375 5.22725H13.6625C14.325 3.59673 16.2 2.39782 18.125 2.39782C20.625 2.39782 22.5 4.19618 22.5 6.594C22.5 10.0589 18.575 13.4757 12.625 18.643ZM18.125 0C15.95 0 13.8625 0.971117 12.5 2.49373C11.1375 0.971117 9.05 0 6.875 0C3.025 0 0 2.88937 0 6.594C0 11.1139 4.25 14.8185 10.6875 20.4174L12.5 22L14.3125 20.4174C20.75 14.8185 25 11.1139 25 6.594C25 2.88937 21.975 0 18.125 0Z" fill="black"/>
</svg>
