<svg width="30" height="26" viewBox="0 0 30 26" fill="none" xmlns="http://www.w3.org/2000/svg">
<path d="M15.612 0.213471C15.4346 0.0751297 15.216 0 14.991 0C14.766 0 14.5474 0.0751297 14.37 0.213471L0 11.4185L1.243 12.9905L3 11.6205V23.9995C3.00106 24.5296 3.21211 25.0377 3.58695 25.4125C3.9618 25.7874 4.46989 25.9984 5 25.9995H25C25.5301 25.9984 26.0382 25.7874 26.413 25.4125C26.7879 25.0377 26.9989 24.5296 27 23.9995V11.6295L28.757 12.9995L30 11.4275L15.612 0.213471ZM17 23.9995H13V15.9995H17V23.9995ZM19 23.9995V15.9995C18.9995 15.4692 18.7886 14.9608 18.4136 14.5858C18.0387 14.2109 17.5303 14 17 13.9995H13C12.4697 14 11.9613 14.2109 11.5864 14.5858C11.2114 14.9608 11.0005 15.4692 11 15.9995V23.9995H5V10.0615L15 2.27147L25 10.0715V23.9995H19Z" fill="black"/>
</svg>
